<svg height="512" viewBox="0 0 60 60" width="512" xmlns="http://www.w3.org/2000/svg"><g id="Page-1" fill="none" fill-rule="evenodd"><g id="023---Birds-Singing" fill-rule="nonzero"><path id="Shape" d="m50 38c-1 8-11 15-19 15h-21.5c-.33740106.0009158-.65223057-.1693851-.8361109-.4522779-.18388032-.2828928-.21170255-.6397485-.0738891-.9477221.24-.55.51-1.16.8-1.8h.01c.39-.87.85-1.8 1.34-2.78 4.52.14 28.26.42 28.26-14.02 0-4.9705627-4.0294373-9-9-9-.9075012-.0050656-1.81285.0888225-2.7.28 1.5464009-1.8923789 2.7941702-4.0102145 3.7-6.28 2-5 5-7 9-7 6.09 0 8.06 3.35 8.52 6.78-.34.13-.52.22-.52.22-2 1-3 4-3 4 .6888965 1.2690336 1.7309664 2.3111035 3 3 0 1 3 5 2 13z" fill="#02a9f4"/><path id="Shape" d="m48 25c-1.2690336-.6888965-2.3111035-1.7309664-3-3 0 0 1-3 3-4 0 0 .18-.09.52-.22-.46-3.43-2.43-6.78-8.52-6.78-.475548-.0008846-.950618.0301854-1.422.093 4.853.537 6.525 3.575 6.942 6.687-.34.13-.52.22-.52.22-2 1-3 4-3 4 .6888965 1.2690336 1.7309664 2.3111035 3 3 0 1 3 5 2 13s-11 15-19 15h3c8 0 18-7 19-15s-2-12-2-13z" fill="#0377bc"/><path id="Shape" d="m24.86 32.96c-3.8466749 3.220725-8.1121742 5.9051639-12.68 7.98h-.01c2.38-5.88 5.66-11.55 10.26-14.6.5323439 2.2988973 1.348612 4.52264 2.43 6.62z" fill="#f5f5f5"/><path id="Shape" d="m22.43 26.34c-.8770772.5868355-1.7000107 1.2508046-2.459 1.984.4835977 1.600902 1.1160244 3.1530089 1.889 4.636-2.7886864 2.2966399-5.7685265 4.3507792-8.907 6.14-.27.611-.533 1.225-.783 1.843h.01c4.5678258-2.0748361 8.8333251-4.759275 12.68-7.98-1.0816204-2.0983087-1.8978936-4.3230729-2.43-6.623z" fill="#cfd8dc"/><path id="Shape" d="m35.63 40.93c-4.7 4.47-13.3 5.71-19.24 6.02 4.6411687-2.2183207 8.8794268-5.1959168 12.54-8.81 1.8908159 1.6009092 4.2317657 2.5757227 6.7 2.79z" fill="#f5f5f5"/><path id="Shape" d="m28.93 38.14c-.343.343-.768.753-1.267 1.209 1.5183464.8879004 3.2147741 1.4278747 4.967 1.581-3.817 3.63-10.206 5.13-15.653 5.731-.2.1-.388.2-.587.289 5.94-.31 14.54-1.55 19.24-6.02-2.4682343-.2142773-4.8091841-1.1890908-6.7-2.79z" fill="#cfd8dc"/><path id="Shape" d="m39 33c.060078 3.0031859-1.1662471 5.8888709-3.37 7.93-2.4682343-.2142773-4.8091841-1.1890908-6.7-2.79-1.6852224-1.4411501-3.0684777-3.201657-4.07-5.18-1.081388-2.09736-1.8976561-4.3211027-2.43-6.62 1.4726113-.9992474 3.1273309-1.6991904 4.87-2.06.88715-.1911775 1.7924988-.2850656 2.7-.28 4.9705627 0 9 4.0294373 9 9z" fill="#3f51b5"/><path id="Shape" d="m30 24c-.5518128.0024669-1.1029155.0398751-1.65.112 4.3961855.664824 7.6470962 4.4418298 7.65 8.888.0535203 2.7589209-.9831381 5.4276426-2.885 7.427.8185531.2541125 1.661495.4216954 2.515.5 2.2029634-2.040429 3.4292163-4.9248522 3.37-7.927 0-4.9705627-4.0294373-9-9-9z" fill="#283593"/><path id="Shape" d="m28.93 38.14c-3.6605732 3.6140832-7.8988313 6.5916793-12.54 8.81l-.01.01c-2.55.13-4.6.09-5.64.06-.47-.01-.73-.02-.74-.02.63-1.98 1.35-4.03 2.17-6.06h.01c4.5678258-2.0748361 8.8333251-4.759275 12.68-7.98 1.0015223 1.978343 2.3847776 3.7388499 4.07 5.18z" fill="#9e9e9e"/><path id="Shape" d="m24.86 32.96c-.527.432-1.225.988-2.046 1.61.8502875 1.3421239 1.9011402 2.5460854 3.116 3.57-3.6605732 3.6140832-7.8988313 6.5916793-12.54 8.81l-.01.01c-.744.038-1.439.06-2.085.074 1.132.024 2.926.036 5.085-.074l.01-.01c4.6411687-2.2183207 8.8794268-5.1959168 12.54-8.81-1.6852224-1.4411501-3.0684777-3.201657-4.07-5.18z" fill="#707070"/><path id="Shape" d="m54 24c-1.9675634.5050577-3.9749889.8396286-6 1-1.2690336-.6888965-2.3111035-1.7309664-3-3 0 0 1-3 3-4 0 0 .18-.09.52-.22 1.4361388-.5203251 2.9525138-.7843368 4.48-.78-.9153277 1.3947857-1.9172975 2.7307454-3 4 1.3947857.9153277 2.7307454 1.9172975 4 3z" fill="#ffdc00"/><path id="Shape" d="m13.41 53c-.9770955 2.2292307-2.4924337 4.1809588-4.41 5.68-8 2-8-6-8-6 2.57129574-1.5214734 5.4263546-2.5015174 8.39-2.88-.29.64-.56 1.25-.8 1.8-.13781345.3079736-.10999122.6648293.0738891.9477221.18388033.2828928.49870984.4531937.8361109.4522779z" fill="#3f51b5"/><circle id="Oval" cx="53" cy="10" fill="#ffdc00" r="2"/><circle id="Oval" cx="3" cy="27" fill="#ffdc00" r="2"/><circle id="Oval" cx="16" cy="12" fill="#9d27b0" r="2"/><circle id="Oval" cx="24" cy="12" fill="#9d27b0" r="2"/><g fill="#000"><path id="Shape" d="m39 19c.5522847 0 1-.4477153 1-1s.4477153-1 1-1 1 .4477153 1 1 .4477153 1 1 1 1-.4477153 1-1c0-1.6568542-1.3431458-3-3-3s-3 1.3431458-3 3c0 .5522847.4477153 1 1 1z"/><path id="Shape" d="m2.684 58.747c1.12751365.8531031 2.51274467 1.2952056 3.926 1.253.8887461-.0093968 1.77299585-.1276102 2.633-.352.11044665-.0274888.21531958-.0738358.31-.137 1.9020135-1.4610927 3.4338902-3.3488772 4.472-5.511h12.66c.6003136 1.0460098 1.0214563 2.1850557 1.246 3.37-.5395485.2190043-1.0530433.4973849-1.531.83-.4418278.3313708-.5313708.9581722-.2 1.4s.9581722.5313708 1.4.2c2.4083842-1.5418035 5.4991575-1.5194605 7.885.057.472347.2723636 1.075816.1161362 1.3566637-.3512161.2808476-.4673523.1355416-1.0735437-.3266637-1.3627839-1.9678699-1.2549347-4.3319553-1.733597-6.633-1.343-.1974889-.9692209-.5156332-1.90988-.947-2.8h2.065c8.156 0 18.893-7.082 19.992-15.876.6064118-4.1450749.0414673-8.3771362-1.631-12.218 1.6429512-.2241635 3.2726429-.5366157 4.882-.936.3493178-.0875805.6245632-.3562237.7205973-.7033127.0960342-.3470889-.0019779-.7190066-.2565973-.9736873-1.0138991-.9016471-2.0887834-1.7322851-3.217-2.486 1.04-1.3 2.276-3.154 2.342-3.252.2047322-.3068587.2239019-.7015085.049874-1.026765-.174028-.3252566-.5129871-.5282902-.881874-.528235-1.251545-.0009422-2.4977061.1638227-3.706.49-.756-3.19-3.044-6.49-9.294-6.49-4.627 0-7.875 2.495-9.929 7.63-.8249732 2.062425-1.9475519 3.9929101-3.332 5.73-7.439 1.692-13.248 9.371-17.692 23.34-.11077711.3529536-.01638531.7382262.245 1-.2.4-.387.8-.573 1.2-2.90784449.4327738-5.70414656 1.4254372-8.234 2.923-.30086126.1807575-.48493325.5060146-.485.857 0 .162.03 3.996 2.684 6.067zm46.761-36.915c.476.317 1.453.988 2.334 1.642-1.1612892.259176-2.339629.4349578-3.526.526-.8660203-.5216428-1.6022137-1.2332165-2.153-2.081.4447027-1.2284832 1.2661181-2.2850887 2.347-3.019.805836-.356581 1.656218-.6024786 2.528-.731-.5141286.7452256-1.0759706 1.4563799-1.682 2.129-.2118265.2117855-.3175606.5073739-.2881198.8054624.0294409.2980886.1909559.567282.4401198.7335376zm-17.516-3.46c1.762-4.407 4.251-6.372 8.071-6.372 4.245 0 6.651 1.72 7.381 5.2-2.224 1.242-3.285 4.345-3.33 4.48-.0838258.2514396-.0644032.5258728.054.763.7001887 1.316202 1.7398072 2.4210772 3.011 3.2.085.269.209.575.372.966 1.5653594 3.535041 2.0925526 7.4425136 1.52 11.266-.951 7.607-10.696 14.125-18.008 14.125h-21.5c.54-1.242 1.176-2.6 1.85-3.964.464.01.957.016 1.488.016 6.549 0 17.759-.888 23.542-6.462 2.3642297-2.2245868 3.6789187-5.3442494 3.62-8.59-.0060624-5.5203344-4.4796656-9.9939376-10-10-.185 0-.364.023-.547.03.9939819-1.4569705 1.8243297-3.0190707 2.476-4.658zm-8.352 8.428c1.9356995-1.177022 4.1575391-1.7996767 6.423-1.8 4.4162219.0049599 7.9950401 3.5837781 8 8 .0611383 2.5690982-.9288635 5.051868-2.741 6.874-2.0990879-.2718589-4.0756742-1.1417791-5.694-2.506-1.5842173-1.3556581-2.8830669-3.0127876-3.821-4.875-.934109-1.8101436-1.6610385-3.719885-2.167-5.693zm5.423 12.661c1.2852742.9422033 2.7340888 1.6379599 4.273 2.052-3.305 2.253-7.859 3.42-12.138 4 2.8268411-1.7356557 5.4630448-3.7641751 7.865-6.052zm-7.168-11.461c.4560801 1.6112028 1.049591 3.1802931 1.774 4.69-2.9522115 2.380459-6.126099 4.4720503-9.478 6.246 2.285-5.006 4.844-8.636 7.704-10.936zm-8.874 13.7c4.160727-1.9147155 8.0656897-4.3422155 11.624-7.226.7959865 1.3534234 1.769267 2.5944065 2.894 3.69-3.3611839 3.1640629-7.1872236 5.7945706-11.345 7.8-1.88.094-3.538.1-4.766.078.514-1.542 1.047-2.981 1.593-4.349zm-5.247 9.41-.043.1c-.26569236.6179406-.2029672 1.328051.1669333 1.8898488.3699005.5617977.99742784.9000294 1.6700667.9001512h2.225c-.8188518 1.431-1.88856998 2.7029417-3.158 3.755-1.992.465-3.558.27-4.65-.578-1.1077418-1.0261535-1.78077262-2.4373357-1.881-3.944 1.77497032-.983393 3.68565158-1.6988033 5.67-2.123z"/><path id="Shape" d="m58.293.293c-.282.281-1.758.162-2.978-.242-.3048474-.10117772-.6397405-.04976392-.9001978.13820111-.2604574.18796502-.4147728.48959977-.4148022.81079889v6.184c-.320257-.11843775-.6585603-.18068557-1-.184-1.6568542 0-3 1.34314575-3 3 0 1.6568542 1.3431458 3 3 3s3-1.3431458 3-3v-7.7c1.2.234 2.8.317 3.707-.588.391846-.39046532.3929653-1.02465397.0025-1.4165-.3904653-.39184603-1.024654-.39296532-1.4165-.0025zm-5.293 10.707c-.5522847 0-1-.4477153-1-1 0-.55228475.4477153-1 1-1s1 .44771525 1 1c0 .5522847-.4477153 1-1 1z"/><path id="Shape" d="m3 30c1.65685425 0 3-1.3431458 3-3v-7.7c1.2.234 2.8.317 3.707-.588.3789722-.3923789.3735524-1.0160848-.01218142-1.4018186-.3857338-.3857338-1.00943969-.3911536-1.40181858-.0121814-.282.281-1.758.162-2.978-.242-.30401234-.1009052-.63796418-.0500662-.89817791.1367336-.26021374.1867998-.4151925.4869498-.41682209.8072664v6.184c-.32025698-.1184378-.65856033-.1806856-1-.184-1.65685425 0-3 1.3431458-3 3s1.34314575 3 3 3zm0-4c.55228475 0 1 .4477153 1 1s-.44771525 1-1 1-1-.4477153-1-1 .44771525-1 1-1z"/><path id="Shape" d="m24 9c-1.6568542 0-3 1.3431458-3 3s1.3431458 3 3 3 3-1.3431458 3-3v-8.889c-.0000772-.33189879-.1648221-.64213382-.4397393-.82808366-.2749172-.18594983-.6241814-.2233827-.9322607-.09991634-4.393 1.759-6.973.16-7.073.1-.306262-.20433803-.7000332-.2238619-1.0250063-.05082159-.324973.17304031-.5285779.51065258-.5299937.87882159v6.073c-.320257-.11843775-.6585603-.18068557-1-.184-1.6568542 0-3 1.3431458-3 3s1.3431458 3 3 3 3-1.3431458 3-3v-7.382c1.9679319.54705613 4.0524142.51057769 6-.105v4.671c-.320257-.11843775-.6585603-.18068557-1-.184zm-8 4c-.5522847 0-1-.4477153-1-1s.4477153-1 1-1 1 .4477153 1 1-.4477153 1-1 1zm8 0c-.5522847 0-1-.4477153-1-1s.4477153-1 1-1 1 .4477153 1 1-.4477153 1-1 1z"/></g></g></g></svg>